<svg version="1.1" id="Layer_1" xmlns="http://www.w3.org/2000/svg" xmlns:xlink="http://www.w3.org/1999/xlink" x="0px" y="0px"
	 width="100%" viewBox="0 0 4096 4096" enable-background="new 0 0 4096 4096" xml:space="preserve">
<path fill="#000000" opacity="1.000000" stroke="none" 
	d="
M1796.000000,4098.000000 
	C1197.333374,4098.000000 599.666687,4098.000000 2.000000,4098.000000 
	C2.000000,2732.666748 2.000000,1367.333374 2.000000,2.000000 
	C1367.333374,2.000000 2732.666748,2.000000 4098.000000,2.000000 
	C4098.000000,1367.333374 4098.000000,2732.666748 4098.000000,4098.000000 
	C3331.000000,4098.000000 2564.000000,4098.000000 1796.000000,4098.000000 
M1982.953003,2638.295410 
	C2003.826782,2631.917725 2024.989868,2626.347412 2045.514282,2618.994629 
	C2088.450439,2603.613037 2128.603760,2582.620117 2166.170654,2556.658691 
	C2208.835449,2527.175537 2245.962646,2491.879150 2278.175293,2451.313477 
	C2297.194336,2427.362305 2313.849609,2401.842285 2328.575684,2375.070068 
	C2342.804932,2349.201416 2355.199463,2322.391846 2364.652344,2294.471436 
	C2373.031494,2269.722900 2379.727783,2244.382324 2386.519043,2219.128662 
	C2389.867432,2206.677002 2392.417480,2193.921875 2394.145996,2181.144287 
	C2396.808350,2161.462158 2398.590088,2141.655273 2400.483154,2121.876465 
	C2401.775879,2108.365967 2403.352295,2094.820312 2403.496582,2081.276611 
	C2403.712402,2061.010742 2402.948975,2040.727295 2402.281738,2020.461914 
	C2401.790283,2005.539307 2401.622314,1990.531616 2399.821289,1975.743164 
	C2396.940674,1952.089600 2393.352295,1928.490234 2389.068359,1905.049683 
	C2385.503662,1885.542969 2381.297607,1866.076782 2375.955566,1846.990234 
	C2368.641846,1820.860107 2359.463379,1795.351929 2348.814209,1770.288208 
	C2335.161133,1738.155396 2319.031494,1707.422852 2299.689697,1678.506592 
	C2277.495850,1645.326416 2251.845703,1614.949219 2222.434082,1587.729614 
	C2191.580322,1559.175415 2157.739258,1534.933838 2120.967041,1514.742798 
	C2092.146973,1498.918457 2062.003906,1485.966797 2030.712646,1475.935669 
	C2014.040039,1470.590820 1997.077881,1465.890625 1979.956787,1462.268066 
	C1957.961548,1457.614014 1935.723389,1454.023315 1913.495972,1450.581665 
	C1900.419800,1448.557129 1887.186890,1446.913940 1873.979858,1446.490356 
	C1841.077026,1445.435181 1808.170654,1444.519409 1775.260742,1447.542603 
	C1749.167847,1449.939575 1723.218994,1453.312866 1697.590210,1458.506226 
	C1664.463623,1465.218872 1632.172363,1475.114014 1600.797485,1487.748413 
	C1568.836548,1500.618774 1538.317505,1516.396240 1509.421997,1535.162109 
	C1472.965942,1558.838257 1439.558350,1586.184326 1409.520508,1617.749390 
	C1383.813965,1644.762695 1361.695679,1674.393921 1342.686890,1706.317383 
	C1322.850952,1739.630249 1306.863037,1774.769409 1294.265503,1811.519165 
	C1283.059326,1844.209839 1273.962891,1877.407349 1268.172974,1911.436646 
	C1264.398560,1933.619995 1260.390991,1955.794556 1259.553467,1978.417725 
	C1258.694580,2001.614380 1256.322510,2024.765869 1255.839966,2047.962646 
	C1255.287598,2074.517822 1258.003174,2100.977539 1259.930908,2127.469971 
	C1262.030640,2156.325928 1266.680664,2184.788086 1272.886230,2212.832031 
	C1279.096802,2240.897949 1287.401001,2268.655762 1296.929077,2295.796875 
	C1312.211426,2339.329102 1333.005737,2380.219238 1358.708130,2418.780029 
	C1390.540771,2466.537598 1429.024170,2507.777100 1474.322144,2542.754395 
	C1502.679932,2564.651367 1532.908813,2583.711670 1565.636963,2598.384521 
	C1586.763794,2607.855957 1608.236694,2616.678955 1629.996948,2624.573242 
	C1645.513428,2630.202148 1661.607544,2634.500977 1677.726074,2638.145996 
	C1701.927734,2643.618896 1726.187866,2648.984863 1751.092407,2650.663086 
	C1770.580322,2651.976562 1789.996948,2654.885986 1809.491211,2655.425537 
	C1831.400391,2656.032227 1853.396973,2655.393799 1875.288574,2654.135010 
	C1893.443481,2653.091309 1911.585693,2650.921631 1929.578125,2648.217041 
	C1946.917847,2645.610352 1964.058716,2641.679932 1982.953003,2638.295410 
M2476.331055,2541.000000 
	C2476.331055,2570.232666 2476.331055,2599.465332 2476.331055,2629.166016 
	C2562.451416,2629.166016 2647.572266,2629.166016 2733.621094,2629.166016 
	C2733.621094,2474.873047 2733.621094,2321.078613 2733.621094,2166.331055 
	C2738.110840,2166.331055 2741.684814,2166.331055 2745.258789,2166.331055 
	C2798.249268,2166.331055 2851.239746,2166.261475 2904.229736,2166.391602 
	C2914.502686,2166.416748 2924.805420,2166.853516 2935.039062,2167.737549 
	C2959.211914,2169.825195 2982.869873,2174.150146 3005.514404,2183.493652 
	C3031.911377,2194.385498 3053.423584,2211.098389 3070.345947,2234.110352 
	C3086.352051,2255.876709 3095.752197,2280.485840 3101.823730,2306.389893 
	C3106.199219,2325.058350 3109.950195,2343.840576 3110.601807,2363.273438 
	C3111.366943,2386.091309 3114.227295,2408.833984 3115.917969,2431.628662 
	C3116.483154,2439.250732 3115.882324,2446.959473 3116.446777,2454.581543 
	C3118.012207,2475.717285 3120.140137,2496.812744 3121.603027,2517.954590 
	C3122.747070,2534.489990 3123.276855,2551.008545 3126.104492,2567.450684 
	C3130.045166,2590.365967 3140.368652,2609.054932 3158.240234,2623.942871 
	C3163.180908,2628.058594 3167.962891,2629.800781 3174.341309,2629.786133 
	C3253.326660,2629.606689 3332.312500,2629.668945 3411.298340,2629.668945 
	C3414.495361,2629.668945 3417.692383,2629.668945 3422.424316,2629.668945 
	C3417.754639,2622.043701 3414.174805,2615.823730 3410.240234,2609.836670 
	C3391.808594,2581.790771 3382.403564,2550.491943 3378.564209,2517.618896 
	C3375.491455,2491.308350 3374.053711,2464.790527 3372.422607,2438.332275 
	C3370.728271,2410.843018 3369.726074,2383.311523 3368.323975,2355.803467 
	C3367.057373,2330.954346 3366.075684,2306.079834 3364.161133,2281.278809 
	C3363.042236,2266.783936 3360.886475,2252.308105 3358.193359,2238.012695 
	C3355.626953,2224.390869 3351.747803,2211.016846 3348.462891,2197.529541 
	C3342.645264,2173.640381 3331.646240,2152.141602 3316.700684,2132.896240 
	C3294.826660,2104.729248 3265.718506,2086.290039 3232.802246,2073.450928 
	C3224.657715,2070.273926 3216.547363,2067.008057 3207.674072,2063.486328 
	C3212.680420,2061.019531 3216.426025,2058.857422 3220.400146,2057.265381 
	C3255.122803,2043.355103 3286.626465,2024.257935 3314.139160,1998.848511 
	C3339.788330,1975.159912 3359.119141,1947.003052 3372.513428,1914.758789 
	C3381.186523,1893.879639 3387.193848,1872.374268 3390.604492,1849.921387 
	C3393.401855,1831.506592 3396.036133,1813.214600 3395.712402,1794.549561 
	C3395.481445,1781.222534 3396.907959,1767.740234 3395.355225,1754.591675 
	C3392.875488,1733.596436 3389.818115,1712.670044 3384.518066,1692.018677 
	C3374.998291,1654.924683 3358.905762,1621.147583 3336.004883,1590.752197 
	C3302.173584,1545.849243 3256.301025,1517.389404 3204.215332,1498.700195 
	C3174.249268,1487.947754 3142.911621,1482.250000 3111.272705,1478.116211 
	C3078.952637,1473.893555 3046.457275,1471.997925 3014.007324,1471.906128 
	C2837.374023,1471.406616 2660.738281,1471.665283 2484.103516,1471.702271 
	C2481.609131,1471.702759 2479.114746,1472.208740 2476.331055,1472.510010 
	C2476.331055,1828.521606 2476.331055,2183.760742 2476.331055,2541.000000 
M620.999878,2629.668213 
	C826.883423,2629.668213 1032.766968,2629.668213 1239.119873,2629.668213 
	C1239.119873,2554.595215 1239.119873,2480.484863 1239.119873,2405.420166 
	C1029.203003,2405.420166 819.832275,2405.420166 609.239868,2405.420166 
	C610.878296,2402.858154 611.593201,2401.417969 612.597534,2400.220215 
	C622.124512,2388.858887 631.691284,2377.531006 641.263916,2366.208008 
	C678.671021,2321.961426 716.171387,2277.793213 753.473389,2233.458008 
	C799.315369,2178.972412 844.939148,2124.303711 890.758484,2069.799072 
	C932.106140,2020.614258 973.561829,1971.520020 1015.022400,1922.430176 
	C1051.783813,1878.904053 1088.708618,1835.515625 1125.392334,1791.924194 
	C1157.153198,1754.182861 1188.578857,1716.159180 1220.438477,1678.501953 
	C1224.151489,1674.113159 1225.804565,1670.077759 1225.786743,1664.370850 
	C1225.595703,1603.378540 1225.667725,1542.385376 1225.667725,1481.392456 
	C1225.667725,1478.476440 1225.667847,1475.560303 1225.667847,1472.161987 
	C914.027039,1472.161987 603.262390,1472.161987 292.204163,1472.161987 
	C292.204163,1546.642578 292.204163,1620.755859 292.204163,1695.907104 
	C488.430969,1695.907104 684.118713,1695.907104 881.427429,1695.907104 
	C878.639832,1699.630493 877.044373,1702.023071 875.192017,1704.196777 
	C845.917236,1738.549927 816.558105,1772.831299 787.324463,1807.219360 
	C761.603394,1837.475952 736.048279,1867.873657 710.358521,1898.156860 
	C672.442810,1942.852051 634.468201,1987.497314 596.527588,2032.171509 
	C574.399292,2058.227051 552.308899,2084.315186 530.165466,2110.357910 
	C495.472931,2151.159424 460.690704,2191.884521 426.058228,2232.737061 
	C397.097992,2266.898438 368.363495,2301.251465 339.406433,2335.415771 
	C315.097198,2364.096191 290.669861,2392.677734 266.132782,2421.163330 
	C262.858887,2424.964355 261.576141,2428.825195 261.585327,2433.771484 
	C261.702271,2496.763916 261.654602,2559.756592 261.696442,2622.749268 
	C261.697876,2624.928223 262.195526,2627.106445 262.508698,2629.668213 
	C381.774536,2629.668213 500.387146,2629.668213 620.999878,2629.668213 
M3605.000000,1471.669312 
	C3590.419678,1471.669312 3575.839111,1471.669312 3560.331787,1471.669312 
	C3560.331787,1476.129395 3560.332031,1479.704102 3560.332031,1483.278809 
	C3560.332031,1557.252197 3560.310547,1631.225586 3560.339844,1705.198975 
	C3560.357422,1749.742432 3559.656982,1794.295898 3563.604492,1838.756104 
	C3566.154297,1867.475220 3567.467041,1896.318604 3570.612793,1924.966064 
	C3573.682617,1952.921509 3578.274658,1980.713745 3582.391602,2008.549072 
	C3585.491211,2029.506714 3589.044922,2050.396973 3592.125244,2071.357422 
	C3595.542480,2094.606201 3598.689697,2117.895020 3601.883057,2141.176025 
	C3604.762695,2162.166992 3607.370117,2183.196533 3610.441650,2204.158936 
	C3612.101807,2215.489746 3614.481689,2226.715088 3616.488037,2237.721680 
	C3640.502686,2239.664795 3742.688232,2238.814453 3749.796387,2236.693604 
	C3752.076904,2219.643311 3754.187988,2202.559326 3756.684326,2185.531738 
	C3759.613037,2165.554688 3763.055176,2145.652588 3765.946533,2125.670410 
	C3768.980225,2104.702393 3771.447998,2083.652100 3774.489990,2062.685303 
	C3777.531738,2041.718384 3781.346191,2020.859497 3784.163086,1999.864990 
	C3788.564209,1967.059814 3791.933105,1934.111938 3796.618896,1901.350220 
	C3801.798096,1865.138428 3803.833740,1828.684204 3804.084229,1792.260742 
	C3804.802246,1687.969727 3804.341797,1583.670776 3804.310303,1479.374878 
	C3804.309570,1476.864136 3803.905273,1474.353394 3803.674316,1471.669312 
	C3737.592529,1471.669312 3672.296387,1471.669312 3605.000000,1471.669312 
M3638.519775,2393.415039 
	C3621.572754,2399.269043 3606.933594,2409.031250 3594.825928,2421.929688 
	C3567.604980,2450.927979 3556.213867,2485.519043 3561.810547,2525.048828 
	C3566.483154,2558.049316 3582.315918,2584.809814 3609.115723,2604.872803 
	C3636.473633,2625.353516 3667.145020,2633.118408 3700.881348,2628.091797 
	C3738.495361,2622.487549 3767.253906,2603.082275 3787.318359,2570.923340 
	C3800.539795,2549.732422 3805.180176,2526.407715 3804.470947,2501.557373 
	C3803.776123,2477.199951 3796.353516,2455.254395 3782.168701,2435.819824 
	C3762.222168,2408.491943 3735.562256,2391.052246 3701.704102,2386.667236 
	C3680.865234,2383.968262 3659.906006,2384.518555 3638.519775,2393.415039 
z"/>
<path fill="#FEFEFE" opacity="1.000000" stroke="none" 
	d="
M1982.119995,2638.313232 
	C1964.058716,2641.679932 1946.917847,2645.610352 1929.578125,2648.217041 
	C1911.585693,2650.921631 1893.443481,2653.091309 1875.288574,2654.135010 
	C1853.396973,2655.393799 1831.400391,2656.032227 1809.491211,2655.425537 
	C1789.996948,2654.885986 1770.580322,2651.976562 1751.092407,2650.663086 
	C1726.187866,2648.984863 1701.927734,2643.618896 1677.726074,2638.145996 
	C1661.607544,2634.500977 1645.513428,2630.202148 1629.996948,2624.573242 
	C1608.236694,2616.678955 1586.763794,2607.855957 1565.636963,2598.384521 
	C1532.908813,2583.711670 1502.679932,2564.651367 1474.322144,2542.754395 
	C1429.024170,2507.777100 1390.540771,2466.537598 1358.708130,2418.780029 
	C1333.005737,2380.219238 1312.211426,2339.329102 1296.929077,2295.796875 
	C1287.401001,2268.655762 1279.096802,2240.897949 1272.886230,2212.832031 
	C1266.680664,2184.788086 1262.030640,2156.325928 1259.930908,2127.469971 
	C1258.003174,2100.977539 1255.287598,2074.517822 1255.839966,2047.962646 
	C1256.322510,2024.765869 1258.694580,2001.614380 1259.553467,1978.417725 
	C1260.390991,1955.794556 1264.398560,1933.619995 1268.172974,1911.436646 
	C1273.962891,1877.407349 1283.059326,1844.209839 1294.265503,1811.519165 
	C1306.863037,1774.769409 1322.850952,1739.630249 1342.686890,1706.317383 
	C1361.695679,1674.393921 1383.813965,1644.762695 1409.520508,1617.749390 
	C1439.558350,1586.184326 1472.965942,1558.838257 1509.421997,1535.162109 
	C1538.317505,1516.396240 1568.836548,1500.618774 1600.797485,1487.748413 
	C1632.172363,1475.114014 1664.463623,1465.218872 1697.590210,1458.506226 
	C1723.218994,1453.312866 1749.167847,1449.939575 1775.260742,1447.542603 
	C1808.170654,1444.519409 1841.077026,1445.435181 1873.979858,1446.490356 
	C1887.186890,1446.913940 1900.419800,1448.557129 1913.495972,1450.581665 
	C1935.723389,1454.023315 1957.961548,1457.614014 1979.956787,1462.268066 
	C1997.077881,1465.890625 2014.040039,1470.590820 2030.712646,1475.935669 
	C2062.003906,1485.966797 2092.146973,1498.918457 2120.967041,1514.742798 
	C2157.739258,1534.933838 2191.580322,1559.175415 2222.434082,1587.729614 
	C2251.845703,1614.949219 2277.495850,1645.326416 2299.689697,1678.506592 
	C2319.031494,1707.422852 2335.161133,1738.155396 2348.814209,1770.288208 
	C2359.463379,1795.351929 2368.641846,1820.860107 2375.955566,1846.990234 
	C2381.297607,1866.076782 2385.503662,1885.542969 2389.068359,1905.049683 
	C2393.352295,1928.490234 2396.940674,1952.089600 2399.821289,1975.743164 
	C2401.622314,1990.531616 2401.790283,2005.539307 2402.281738,2020.461914 
	C2402.948975,2040.727295 2403.712402,2061.010742 2403.496582,2081.276611 
	C2403.352295,2094.820312 2401.775879,2108.365967 2400.483154,2121.876465 
	C2398.590088,2141.655273 2396.808350,2161.462158 2394.145996,2181.144287 
	C2392.417480,2193.921875 2389.867432,2206.677002 2386.519043,2219.128662 
	C2379.727783,2244.382324 2373.031494,2269.722900 2364.652344,2294.471436 
	C2355.199463,2322.391846 2342.804932,2349.201416 2328.575684,2375.070068 
	C2313.849609,2401.842285 2297.194336,2427.362305 2278.175293,2451.313477 
	C2245.962646,2491.879150 2208.835449,2527.175537 2166.170654,2556.658691 
	C2128.603760,2582.620117 2088.450439,2603.613037 2045.514282,2618.994629 
	C2024.989868,2626.347412 2003.826782,2631.917725 1982.119995,2638.313232 
M1868.319214,2431.659912 
	C1876.826782,2430.363525 1885.427490,2429.499756 1893.825562,2427.694092 
	C1926.454102,2420.679443 1957.326660,2409.075439 1985.427368,2390.841797 
	C2034.521118,2358.986084 2068.319336,2314.285645 2091.555664,2261.393799 
	C2107.067627,2226.084473 2116.606689,2188.959717 2122.598389,2150.735352 
	C2127.397217,2120.123535 2129.218750,2089.446533 2129.559570,2058.608398 
	C2129.724609,2043.679321 2128.515869,2028.740112 2128.391846,2013.801514 
	C2128.178955,1988.173706 2124.525879,1962.900391 2120.019531,1937.814453 
	C2116.221680,1916.671753 2111.022705,1895.810791 2104.425537,1875.237915 
	C2091.968262,1836.390625 2074.309082,1800.392944 2049.245361,1768.190674 
	C2027.654297,1740.450317 2001.476196,1717.952148 1970.573975,1701.028442 
	C1935.424561,1681.778809 1897.518799,1671.572632 1857.873535,1668.519287 
	C1814.851807,1665.205688 1772.452881,1668.782227 1731.142212,1682.896484 
	C1700.666016,1693.308960 1673.142212,1708.468628 1648.466064,1728.985474 
	C1623.812866,1749.483398 1603.992798,1774.086914 1587.610352,1801.508789 
	C1575.003662,1822.610474 1564.713867,1844.940918 1557.010498,1868.184570 
	C1549.112915,1892.014404 1542.424194,1916.307007 1539.036499,1941.336060 
	C1537.393311,1953.475586 1535.113159,1965.537842 1533.770874,1977.706665 
	C1532.572510,1988.569458 1532.066284,1999.522583 1531.614746,2010.450684 
	C1530.888550,2028.024902 1529.745728,2045.625732 1530.101196,2063.188721 
	C1530.469482,2081.385254 1531.890869,2099.605225 1533.808594,2117.713623 
	C1535.828247,2136.784912 1538.463013,2155.827881 1541.818359,2174.707520 
	C1544.069580,2187.374756 1548.090332,2199.723633 1551.235596,2212.236328 
	C1557.151489,2235.771240 1566.261841,2258.112549 1577.195435,2279.669922 
	C1590.132324,2305.177246 1605.990356,2328.614258 1625.588745,2349.743896 
	C1646.833130,2372.648193 1671.386719,2390.932129 1698.952271,2404.847656 
	C1723.230957,2417.104248 1749.278809,2424.721924 1776.319458,2429.100342 
	C1806.340332,2433.961670 1836.321655,2435.239746 1868.319214,2431.659912 
z"/>
<path fill="#FEFEFE" opacity="1.000000" stroke="none" 
	d="
M2476.331055,2540.000000 
	C2476.331055,2183.760742 2476.331055,1828.521606 2476.331055,1472.510010 
	C2479.114746,1472.208740 2481.609131,1471.702759 2484.103516,1471.702271 
	C2660.738281,1471.665283 2837.374023,1471.406616 3014.007324,1471.906128 
	C3046.457275,1471.997925 3078.952637,1473.893555 3111.272705,1478.116211 
	C3142.911621,1482.250000 3174.249268,1487.947754 3204.215332,1498.700195 
	C3256.301025,1517.389404 3302.173584,1545.849243 3336.004883,1590.752197 
	C3358.905762,1621.147583 3374.998291,1654.924683 3384.518066,1692.018677 
	C3389.818115,1712.670044 3392.875488,1733.596436 3395.355225,1754.591675 
	C3396.907959,1767.740234 3395.481445,1781.222534 3395.712402,1794.549561 
	C3396.036133,1813.214600 3393.401855,1831.506592 3390.604492,1849.921387 
	C3387.193848,1872.374268 3381.186523,1893.879639 3372.513428,1914.758789 
	C3359.119141,1947.003052 3339.788330,1975.159912 3314.139160,1998.848511 
	C3286.626465,2024.257935 3255.122803,2043.355103 3220.400146,2057.265381 
	C3216.426025,2058.857422 3212.680420,2061.019531 3207.674072,2063.486328 
	C3216.547363,2067.008057 3224.657715,2070.273926 3232.802246,2073.450928 
	C3265.718506,2086.290039 3294.826660,2104.729248 3316.700684,2132.896240 
	C3331.646240,2152.141602 3342.645264,2173.640381 3348.462891,2197.529541 
	C3351.747803,2211.016846 3355.626953,2224.390869 3358.193359,2238.012695 
	C3360.886475,2252.308105 3363.042236,2266.783936 3364.161133,2281.278809 
	C3366.075684,2306.079834 3367.057373,2330.954346 3368.323975,2355.803467 
	C3369.726074,2383.311523 3370.728271,2410.843018 3372.422607,2438.332275 
	C3374.053711,2464.790527 3375.491455,2491.308350 3378.564209,2517.618896 
	C3382.403564,2550.491943 3391.808594,2581.790771 3410.240234,2609.836670 
	C3414.174805,2615.823730 3417.754639,2622.043701 3422.424316,2629.668945 
	C3417.692383,2629.668945 3414.495361,2629.668945 3411.298340,2629.668945 
	C3332.312500,2629.668945 3253.326660,2629.606689 3174.341309,2629.786133 
	C3167.962891,2629.800781 3163.180908,2628.058594 3158.240234,2623.942871 
	C3140.368652,2609.054932 3130.045166,2590.365967 3126.104492,2567.450684 
	C3123.276855,2551.008545 3122.747070,2534.489990 3121.603027,2517.954590 
	C3120.140137,2496.812744 3118.012207,2475.717285 3116.446777,2454.581543 
	C3115.882324,2446.959473 3116.483154,2439.250732 3115.917969,2431.628662 
	C3114.227295,2408.833984 3111.366943,2386.091309 3110.601807,2363.273438 
	C3109.950195,2343.840576 3106.199219,2325.058350 3101.823730,2306.389893 
	C3095.752197,2280.485840 3086.352051,2255.876709 3070.345947,2234.110352 
	C3053.423584,2211.098389 3031.911377,2194.385498 3005.514404,2183.493652 
	C2982.869873,2174.150146 2959.211914,2169.825195 2935.039062,2167.737549 
	C2924.805420,2166.853516 2914.502686,2166.416748 2904.229736,2166.391602 
	C2851.239746,2166.261475 2798.249268,2166.331055 2745.258789,2166.331055 
	C2741.684814,2166.331055 2738.110840,2166.331055 2733.621094,2166.331055 
	C2733.621094,2321.078613 2733.621094,2474.873047 2733.621094,2629.166016 
	C2647.572266,2629.166016 2562.451416,2629.166016 2476.331055,2629.166016 
	C2476.331055,2599.465332 2476.331055,2570.232666 2476.331055,2540.000000 
M2733.667725,1741.000000 
	C2733.667725,1813.853271 2733.667725,1886.706543 2733.667725,1960.331543 
	C2736.160156,1960.331543 2737.741699,1960.331421 2739.322998,1960.331421 
	C2824.274170,1960.331787 2909.226562,1960.611694 2994.175293,1960.149292 
	C3017.403320,1960.022827 3040.191162,1956.169922 3062.002930,1946.965576 
	C3106.432129,1928.216553 3128.190186,1893.067627 3133.236572,1847.106689 
	C3135.572754,1825.829590 3134.691895,1804.101074 3128.326904,1782.896362 
	C3121.339355,1759.618652 3109.473145,1739.569702 3090.459229,1724.845215 
	C3065.629395,1705.617188 3036.293945,1696.252930 3005.268555,1695.958984 
	C2917.327148,1695.125977 2829.372559,1695.662109 2741.423340,1695.694336 
	C2738.909180,1695.695190 2736.395020,1696.094116 2733.667725,1696.325684 
	C2733.667725,1711.052002 2733.667725,1725.026001 2733.667725,1741.000000 
z"/>
<path fill="#FEFEFE" opacity="1.000000" stroke="none" 
	d="
M619.999817,2629.668213 
	C500.387146,2629.668213 381.774536,2629.668213 262.508698,2629.668213 
	C262.195526,2627.106445 261.697876,2624.928223 261.696442,2622.749268 
	C261.654602,2559.756592 261.702271,2496.763916 261.585327,2433.771484 
	C261.576141,2428.825195 262.858887,2424.964355 266.132782,2421.163330 
	C290.669861,2392.677734 315.097198,2364.096191 339.406433,2335.415771 
	C368.363495,2301.251465 397.097992,2266.898438 426.058228,2232.737061 
	C460.690704,2191.884521 495.472931,2151.159424 530.165466,2110.357910 
	C552.308899,2084.315186 574.399292,2058.227051 596.527588,2032.171509 
	C634.468201,1987.497314 672.442810,1942.852051 710.358521,1898.156860 
	C736.048279,1867.873657 761.603394,1837.475952 787.324463,1807.219360 
	C816.558105,1772.831299 845.917236,1738.549927 875.192017,1704.196777 
	C877.044373,1702.023071 878.639832,1699.630493 881.427429,1695.907104 
	C684.118713,1695.907104 488.430969,1695.907104 292.204163,1695.907104 
	C292.204163,1620.755859 292.204163,1546.642578 292.204163,1472.161987 
	C603.262390,1472.161987 914.027039,1472.161987 1225.667847,1472.161987 
	C1225.667847,1475.560303 1225.667725,1478.476440 1225.667725,1481.392456 
	C1225.667725,1542.385376 1225.595703,1603.378540 1225.786743,1664.370850 
	C1225.804565,1670.077759 1224.151489,1674.113159 1220.438477,1678.501953 
	C1188.578857,1716.159180 1157.153198,1754.182861 1125.392334,1791.924194 
	C1088.708618,1835.515625 1051.783813,1878.904053 1015.022400,1922.430176 
	C973.561829,1971.520020 932.106140,2020.614258 890.758484,2069.799072 
	C844.939148,2124.303711 799.315369,2178.972412 753.473389,2233.458008 
	C716.171387,2277.793213 678.671021,2321.961426 641.263916,2366.208008 
	C631.691284,2377.531006 622.124512,2388.858887 612.597534,2400.220215 
	C611.593201,2401.417969 610.878296,2402.858154 609.239868,2405.420166 
	C819.832275,2405.420166 1029.203003,2405.420166 1239.119873,2405.420166 
	C1239.119873,2480.484863 1239.119873,2554.595215 1239.119873,2629.668213 
	C1032.766968,2629.668213 826.883423,2629.668213 619.999817,2629.668213 
z"/>
<path fill="#FEFEFE" opacity="1.000000" stroke="none" 
	d="
M3606.000000,1471.669312 
	C3672.296387,1471.669312 3737.592529,1471.669312 3803.674316,1471.669312 
	C3803.905273,1474.353394 3804.309570,1476.864136 3804.310303,1479.374878 
	C3804.341797,1583.670776 3804.802246,1687.969727 3804.084229,1792.260742 
	C3803.833740,1828.684204 3801.798096,1865.138428 3796.618896,1901.350220 
	C3791.933105,1934.111938 3788.564209,1967.059814 3784.163086,1999.864990 
	C3781.346191,2020.859497 3777.531738,2041.718384 3774.489990,2062.685303 
	C3771.447998,2083.652100 3768.980225,2104.702393 3765.946533,2125.670410 
	C3763.055176,2145.652588 3759.613037,2165.554688 3756.684326,2185.531738 
	C3754.187988,2202.559326 3752.076904,2219.643311 3749.796387,2236.693604 
	C3742.688232,2238.814453 3640.502686,2239.664795 3616.488037,2237.721680 
	C3614.481689,2226.715088 3612.101807,2215.489746 3610.441650,2204.158936 
	C3607.370117,2183.196533 3604.762695,2162.166992 3601.883057,2141.176025 
	C3598.689697,2117.895020 3595.542480,2094.606201 3592.125244,2071.357422 
	C3589.044922,2050.396973 3585.491211,2029.506714 3582.391602,2008.549072 
	C3578.274658,1980.713745 3573.682617,1952.921509 3570.612793,1924.966064 
	C3567.467041,1896.318604 3566.154297,1867.475220 3563.604492,1838.756104 
	C3559.656982,1794.295898 3560.357422,1749.742432 3560.339844,1705.198975 
	C3560.310547,1631.225586 3560.332031,1557.252197 3560.332031,1483.278809 
	C3560.332031,1479.704102 3560.331787,1476.129395 3560.331787,1471.669312 
	C3575.839111,1471.669312 3590.419678,1471.669312 3606.000000,1471.669312 
z"/>
<path fill="#FEFEFE" opacity="1.000000" stroke="none" 
	d="
M3639.222168,2393.072266 
	C3659.906006,2384.518555 3680.865234,2383.968262 3701.704102,2386.667236 
	C3735.562256,2391.052246 3762.222168,2408.491943 3782.168701,2435.819824 
	C3796.353516,2455.254395 3803.776123,2477.199951 3804.470947,2501.557373 
	C3805.180176,2526.407715 3800.539795,2549.732422 3787.318359,2570.923340 
	C3767.253906,2603.082275 3738.495361,2622.487549 3700.881348,2628.091797 
	C3667.145020,2633.118408 3636.473633,2625.353516 3609.115723,2604.872803 
	C3582.315918,2584.809814 3566.483154,2558.049316 3561.810547,2525.048828 
	C3556.213867,2485.519043 3567.604980,2450.927979 3594.825928,2421.929688 
	C3606.933594,2409.031250 3621.572754,2399.269043 3639.222168,2393.072266 
z"/>
<path fill="#000000" opacity="1.000000" stroke="none" 
	d="
M1867.417358,2431.692871 
	C1836.321655,2435.239746 1806.340332,2433.961670 1776.319458,2429.100342 
	C1749.278809,2424.721924 1723.230957,2417.104248 1698.952271,2404.847656 
	C1671.386719,2390.932129 1646.833130,2372.648193 1625.588745,2349.743896 
	C1605.990356,2328.614258 1590.132324,2305.177246 1577.195435,2279.669922 
	C1566.261841,2258.112549 1557.151489,2235.771240 1551.235596,2212.236328 
	C1548.090332,2199.723633 1544.069580,2187.374756 1541.818359,2174.707520 
	C1538.463013,2155.827881 1535.828247,2136.784912 1533.808594,2117.713623 
	C1531.890869,2099.605225 1530.469482,2081.385254 1530.101196,2063.188721 
	C1529.745728,2045.625732 1530.888550,2028.024902 1531.614746,2010.450684 
	C1532.066284,1999.522583 1532.572510,1988.569458 1533.770874,1977.706665 
	C1535.113159,1965.537842 1537.393311,1953.475586 1539.036499,1941.336060 
	C1542.424194,1916.307007 1549.112915,1892.014404 1557.010498,1868.184570 
	C1564.713867,1844.940918 1575.003662,1822.610474 1587.610352,1801.508789 
	C1603.992798,1774.086914 1623.812866,1749.483398 1648.466064,1728.985474 
	C1673.142212,1708.468628 1700.666016,1693.308960 1731.142212,1682.896484 
	C1772.452881,1668.782227 1814.851807,1665.205688 1857.873535,1668.519287 
	C1897.518799,1671.572632 1935.424561,1681.778809 1970.573975,1701.028442 
	C2001.476196,1717.952148 2027.654297,1740.450317 2049.245361,1768.190674 
	C2074.309082,1800.392944 2091.968262,1836.390625 2104.425537,1875.237915 
	C2111.022705,1895.810791 2116.221680,1916.671753 2120.019531,1937.814453 
	C2124.525879,1962.900391 2128.178955,1988.173706 2128.391846,2013.801514 
	C2128.515869,2028.740112 2129.724609,2043.679321 2129.559570,2058.608398 
	C2129.218750,2089.446533 2127.397217,2120.123535 2122.598389,2150.735352 
	C2116.606689,2188.959717 2107.067627,2226.084473 2091.555664,2261.393799 
	C2068.319336,2314.285645 2034.521118,2358.986084 1985.427368,2390.841797 
	C1957.326660,2409.075439 1926.454102,2420.679443 1893.825562,2427.694092 
	C1885.427490,2429.499756 1876.826782,2430.363525 1867.417358,2431.692871 
z"/>
<path fill="#000000" opacity="1.000000" stroke="none" 
	d="
M2733.667725,1740.000000 
	C2733.667725,1725.026001 2733.667725,1711.052002 2733.667725,1696.325684 
	C2736.395020,1696.094116 2738.909180,1695.695190 2741.423340,1695.694336 
	C2829.372559,1695.662109 2917.327148,1695.125977 3005.268555,1695.958984 
	C3036.293945,1696.252930 3065.629395,1705.617188 3090.459229,1724.845215 
	C3109.473145,1739.569702 3121.339355,1759.618652 3128.326904,1782.896362 
	C3134.691895,1804.101074 3135.572754,1825.829590 3133.236572,1847.106689 
	C3128.190186,1893.067627 3106.432129,1928.216553 3062.002930,1946.965576 
	C3040.191162,1956.169922 3017.403320,1960.022827 2994.175293,1960.149292 
	C2909.226562,1960.611694 2824.274170,1960.331787 2739.322998,1960.331421 
	C2737.741699,1960.331421 2736.160156,1960.331543 2733.667725,1960.331543 
	C2733.667725,1886.706543 2733.667725,1813.853271 2733.667725,1740.000000 
z"/>
</svg>